<svg width="184" height="32" viewBox="0 0 184 32" fill="none" xmlns="http://www.w3.org/2000/svg">
<g opacity="0.6">
<rect opacity="0.3" width="32" height="32" rx="4" fill="white"/>
<path d="M23.1875 8.1875H8.8125C8.4668 8.1875 8.1875 8.4668 8.1875 8.8125V23.1875C8.1875 23.5332 8.4668 23.8125 8.8125 23.8125H23.1875C23.5332 23.8125 23.8125 23.5332 23.8125 23.1875V8.8125C23.8125 8.4668 23.5332 8.1875 23.1875 8.1875ZM21.3828 12.748H20.1348C19.1562 12.748 18.9668 13.2129 18.9668 13.8965V15.4023H21.3027L20.998 17.7598H18.9668V23.8125H16.5312V17.7617H14.4941V15.4023H16.5312V13.6641C16.5312 11.6465 17.7637 10.5469 19.5645 10.5469C20.4277 10.5469 21.168 10.6113 21.3848 10.6406V12.748H21.3828Z" fill="white"/>
</g>
<g opacity="0.6">
<rect opacity="0.3" x="76" width="32" height="32" rx="4" fill="white"/>
<g clip-path="url(#clip0_5_884)">
<path d="M92 8C89.5428 8 87.544 9.96811 87.544 12.3876C87.544 14.8069 89.5428 16.7741 92 16.7741C94.457 16.7741 96.4549 14.8069 96.4549 12.3876C96.4549 9.96811 94.457 8 92 8ZM92 10.5707C93.0169 10.5707 93.8439 11.3862 93.8439 12.3876C93.8439 13.3886 93.0169 14.2034 92 14.2034C90.9828 14.2034 90.155 13.3886 90.155 12.3876C90.155 11.3862 90.9828 10.5707 92 10.5707ZM88.3262 16.9234C87.8853 16.9167 87.4518 17.1306 87.2003 17.5253C86.816 18.1265 87.0001 18.9199 87.6093 19.2981C88.415 19.7959 89.2893 20.1491 90.196 20.3526L87.7058 22.8059C87.196 23.3082 87.1965 24.1216 87.7064 24.6239C87.9619 24.8745 88.2952 25 88.6294 25C88.9632 25 89.2976 24.8744 89.5524 24.6233L91.9989 22.2131L94.4476 24.6233C94.9569 25.1255 95.7828 25.1255 96.2931 24.6233C96.8031 24.1214 96.8031 23.3071 96.2931 22.8059L93.8018 20.3532C94.7088 20.1496 95.5834 19.7962 96.3886 19.2981C96.9989 18.9199 97.1833 18.1257 96.7991 17.5253C96.4145 16.9239 95.6091 16.7428 94.9983 17.1216C93.1741 18.2515 90.8236 18.2508 89 17.1216C88.7901 16.9914 88.5571 16.927 88.3262 16.9234V16.9234Z" fill="white"/>
</g>
</g>
<g opacity="0.6">
<rect opacity="0.3" x="38" width="32" height="32" rx="4" fill="white"/>
<path d="M53.9991 12.1475C52.9771 12.1475 51.997 12.5534 51.2744 13.2761C50.5517 13.9987 50.1458 14.9788 50.1458 16.0008C50.1458 17.0228 50.5517 18.0029 51.2744 18.7255C51.997 19.4482 52.9771 19.8541 53.9991 19.8541C55.0211 19.8541 56.0012 19.4482 56.7238 18.7255C57.4464 18.0029 57.8524 17.0228 57.8524 16.0008C57.8524 14.9788 57.4464 13.9987 56.7238 13.2761C56.0012 12.5534 55.0211 12.1475 53.9991 12.1475ZM53.9991 18.5033C53.3352 18.5033 52.6984 18.2396 52.229 17.7701C51.7595 17.3006 51.4958 16.6639 51.4958 16C51.4958 15.336 51.7595 14.6993 52.229 14.2298C52.6984 13.7604 53.3352 13.4966 53.9991 13.4966C54.663 13.4966 55.2997 13.7604 55.7692 14.2298C56.2387 14.6993 56.5024 15.336 56.5024 16C56.5024 16.6639 56.2387 17.3006 55.7692 17.7701C55.2997 18.2396 54.663 18.5033 53.9991 18.5033Z" fill="white"/>
<path d="M58.005 12.9041C58.5012 12.9041 58.9034 12.5019 58.9034 12.0058C58.9034 11.5096 58.5012 11.1074 58.005 11.1074C57.5089 11.1074 57.1067 11.5096 57.1067 12.0058C57.1067 12.5019 57.5089 12.9041 58.005 12.9041Z" fill="white"/>
<path d="M61.1109 11.0927C60.918 10.5945 60.6232 10.1421 60.2453 9.76444C59.8675 9.38676 59.415 9.09212 58.9167 8.89939C58.3337 8.68053 57.7177 8.56218 57.095 8.54939C56.2925 8.51439 56.0384 8.50439 54.0034 8.50439C51.9684 8.50439 51.7075 8.50439 50.9117 8.54939C50.2895 8.56153 49.674 8.6799 49.0917 8.89939C48.5933 9.0919 48.1407 9.38645 47.7628 9.76417C47.385 10.1419 47.0902 10.5944 46.8975 11.0927C46.6786 11.6757 46.5606 12.2918 46.5484 12.9144C46.5125 13.7161 46.5017 13.9702 46.5017 16.0061C46.5017 18.0411 46.5017 18.3002 46.5484 19.0977C46.5609 19.7211 46.6784 20.3361 46.8975 20.9202C47.0908 21.4184 47.3858 21.8707 47.7637 22.2484C48.1417 22.626 48.5943 22.9207 49.0925 23.1136C49.6737 23.3412 50.2895 23.468 50.9134 23.4886C51.7159 23.5236 51.97 23.5344 54.005 23.5344C56.04 23.5344 56.3009 23.5344 57.0967 23.4886C57.7193 23.4759 58.3352 23.3578 58.9184 23.1394C59.4165 22.9462 59.8689 22.6513 60.2467 22.2735C60.6245 21.8958 60.9194 21.4434 61.1125 20.9452C61.3317 20.3619 61.4492 19.7469 61.4617 19.1236C61.4975 18.3219 61.5084 18.0677 61.5084 16.0319C61.5084 13.9961 61.5084 13.7377 61.4617 12.9402C61.452 12.3088 61.3333 11.6838 61.1109 11.0927ZM60.0959 19.0361C60.0905 19.5163 60.0028 19.9921 59.8367 20.4427C59.7116 20.7668 59.52 21.0611 59.2743 21.3066C59.0286 21.5522 58.7342 21.7436 58.41 21.8686C57.9644 22.0339 57.4937 22.1216 57.0184 22.1277C56.2267 22.1644 56.0034 22.1736 53.9734 22.1736C51.9417 22.1736 51.7342 22.1736 50.9275 22.1277C50.4525 22.1219 49.982 22.0342 49.5367 21.8686C49.2114 21.7444 48.9159 21.5533 48.6691 21.3077C48.4224 21.0621 48.2299 20.7674 48.1042 20.4427C47.9404 19.9969 47.8528 19.5268 47.845 19.0519C47.8092 18.2602 47.8009 18.0369 47.8009 16.0069C47.8009 13.9761 47.8009 13.7686 47.845 12.9611C47.8504 12.4811 47.9381 12.0056 48.1042 11.5552C48.3584 10.8977 48.8792 10.3802 49.5367 10.1286C49.9822 9.96368 50.4526 9.87603 50.9275 9.86939C51.72 9.83356 51.9425 9.82356 53.9734 9.82356C56.0042 9.82356 56.2125 9.82356 57.0184 9.86939C57.4937 9.87511 57.9645 9.96279 58.41 10.1286C58.7341 10.2538 59.0285 10.4454 59.2742 10.6911C59.5199 10.9368 59.7115 11.2311 59.8367 11.5552C60.0005 12.001 60.0881 12.4712 60.0959 12.9461C60.1317 13.7386 60.1409 13.9611 60.1409 15.9919C60.1409 18.0219 60.1409 18.2402 60.105 19.0369H60.0959V19.0361Z" fill="white"/>
</g>
<g opacity="0.6">
<rect opacity="0.3" x="114" width="32" height="32" rx="4" fill="white"/>
<g clip-path="url(#clip1_5_884)">
<path fill-rule="evenodd" clip-rule="evenodd" d="M138.588 11.461C138.712 11.0515 138.587 10.75 137.991 10.75H136.023C135.522 10.75 135.29 11.0103 135.165 11.2975C135.165 11.2975 134.164 13.6945 132.746 15.2515C132.287 15.703 132.078 15.8463 131.828 15.8463C131.703 15.8463 131.514 15.703 131.514 15.2928V11.461C131.514 10.969 131.376 10.75 130.959 10.75H127.863C127.55 10.75 127.362 10.978 127.362 11.1947C127.362 11.6605 128.072 11.7685 128.144 13.0795V15.928C128.144 16.5528 128.03 16.666 127.779 16.666C127.112 16.666 125.488 14.2577 124.524 11.5022C124.337 10.966 124.148 10.75 123.645 10.75H121.675C121.112 10.75 121 11.0103 121 11.2975C121 11.809 121.667 14.35 124.109 17.7108C125.736 20.0057 128.028 21.25 130.115 21.25C131.366 21.25 131.521 20.974 131.521 20.4977V18.763C131.521 18.2102 131.639 18.1 132.036 18.1C132.329 18.1 132.829 18.244 133.997 19.3502C135.332 20.662 135.552 21.25 136.304 21.25H138.273C138.835 21.25 139.117 20.974 138.955 20.428C138.777 19.885 138.139 19.0968 137.294 18.1615C136.835 17.629 136.146 17.0553 135.937 16.768C135.645 16.3998 135.729 16.2355 135.937 15.9078C135.937 15.9078 138.337 12.5882 138.587 11.461H138.588Z" fill="white"/>
</g>
</g>
<g opacity="0.6">
<rect opacity="0.3" x="152" width="32" height="32" rx="4" fill="white"/>
<g clip-path="url(#clip2_5_884)">
<path d="M168.051 9.99902H168.14C168.962 10.002 173.127 10.032 174.25 10.334C174.589 10.4262 174.899 10.6058 175.147 10.855C175.395 11.1042 175.574 11.4142 175.665 11.754C175.766 12.134 175.837 12.637 175.885 13.156L175.895 13.26L175.917 13.52L175.925 13.624C175.99 14.538 175.998 15.394 175.999 15.581V15.656C175.998 15.85 175.989 16.764 175.917 17.716L175.909 17.821L175.9 17.925C175.85 18.497 175.776 19.065 175.665 19.483C175.574 19.823 175.396 20.1331 175.147 20.3823C174.899 20.6316 174.59 20.8111 174.25 20.903C173.09 21.215 168.681 21.237 168.07 21.238H167.928C167.619 21.238 166.341 21.232 165.001 21.186L164.831 21.18L164.744 21.176L164.573 21.169L164.402 21.162C163.292 21.113 162.235 21.034 161.748 20.902C161.408 20.8102 161.099 20.6308 160.851 20.3818C160.602 20.1327 160.424 19.8228 160.333 19.483C160.222 19.066 160.148 18.497 160.098 17.925L160.09 17.82L160.082 17.716C160.033 17.0384 160.005 16.3594 160 15.68V15.558C160.002 15.343 160.01 14.6 160.064 13.78L160.071 13.677L160.074 13.625L160.082 13.521L160.104 13.261L160.114 13.157C160.162 12.638 160.233 12.134 160.334 11.755C160.425 11.4151 160.603 11.1049 160.852 10.8557C161.1 10.6065 161.409 10.4269 161.749 10.335C162.236 10.205 163.293 10.125 164.403 10.075L164.573 10.068L164.745 10.062L164.831 10.059L165.002 10.052C165.954 10.0211 166.906 10.0037 167.858 10H168.051V9.99902ZM166.4 13.209V18.027L170.557 15.619L166.4 13.209Z" fill="white"/>
</g>
</g>
<defs>
<clipPath id="clip0_5_884">
<rect width="10" height="17" fill="white" transform="translate(87 8)"/>
</clipPath>
<clipPath id="clip1_5_884">
<rect width="18" height="18" fill="white" transform="translate(121 7)"/>
</clipPath>
<clipPath id="clip2_5_884">
<rect width="16" height="16" fill="white" transform="translate(160 8)"/>
</clipPath>
</defs>
</svg>
